<?xml version="1.0" standalone="no"?>
<!DOCTYPE svg PUBLIC "-//W3C//DTD SVG 20010904//EN"
 "http://www.w3.org/TR/2001/REC-SVG-20010904/DTD/svg10.dtd">
<svg version="1.0" xmlns="http://www.w3.org/2000/svg"
 width="1024.000000pt" height="1024.000000pt" viewBox="0 0 1024.000000 1024.000000"
 preserveAspectRatio="xMidYMid meet">
<metadata>
Created by potrace 1.11, written by Peter Selinger 2001-2013
</metadata>
<g transform="translate(0.000000,1024.000000) scale(0.100000,-0.100000)"
fill="#000000" stroke="none">
<path d="M4555 10230 c-3 -5 -19 -10 -35 -10 -16 0 -95 -14 -174 -30 -507
-106 -840 -327 -1118 -745 -136 -204 -239 -426 -363 -786 -94 -269 -142 -342
-321 -485 -51 -40 -98 -82 -103 -93 -24 -45 16 -106 197 -300 59 -62 107 -117
107 -121 0 -5 -14 -23 -30 -42 -126 -138 -184 -242 -204 -363 -34 -205 60
-389 264 -522 134 -88 146 -97 175 -133 16 -21 52 -89 78 -151 114 -264 237
-446 420 -621 336 -321 776 -499 1259 -511 120 -3 302 5 379 17 458 73 771
218 1047 485 163 157 275 318 402 576 46 94 100 189 119 212 20 22 81 71 136
109 56 37 125 92 154 122 194 195 187 504 -15 722 -18 19 -48 51 -66 71 l-33
37 50 126 c91 228 122 377 122 591 0 354 -93 657 -277 896 -66 85 -203 219
-278 273 -119 84 -330 207 -719 419 -271 148 -458 220 -628 243 -45 6 -51 9
-30 15 14 4 -95 7 -242 8 -168 1 -269 -3 -273 -9z m1306 -1807 c6 -16 24 -86
40 -156 16 -71 41 -163 55 -205 42 -127 136 -308 239 -462 100 -149 165 -271
185 -350 29 -118 54 -190 63 -187 6 2 39 54 73 116 75 133 107 178 140 193 22
10 29 7 68 -31 147 -144 74 -331 -159 -406 -44 -15 -91 -32 -104 -38 -36 -18
-65 -72 -117 -214 -92 -254 -194 -427 -347 -589 -231 -244 -494 -389 -832
-458 -113 -23 -189 -29 -386 -28 -209 0 -294 10 -455 52 -383 101 -706 334
-900 650 -58 93 -147 280 -182 381 -63 180 -82 203 -192 235 -120 35 -210 107
-245 197 -23 60 -14 122 25 176 30 41 115 110 136 111 6 0 37 -60 69 -132 85
-196 95 -218 100 -218 19 0 70 161 111 345 27 120 51 141 234 198 80 25 255
80 388 122 255 80 532 175 714 244 111 43 138 48 138 30 0 -11 -12 -24 -114
-118 -67 -61 -63 -72 23 -64 195 17 630 183 856 326 100 63 166 118 269 224
44 46 84 83 88 83 5 0 13 -12 19 -27z"/>
<path d="M3926 7559 c-184 -42 -261 -261 -138 -387 92 -94 243 -103 338 -19
51 44 77 101 77 167 0 141 -147 268 -277 239z"/>
<path d="M5551 7551 c-94 -38 -162 -140 -157 -236 12 -204 247 -293 400 -152
37 35 66 104 66 163 0 155 -170 280 -309 225z"/>
<path d="M4740 6613 c-14 -2 -45 -6 -69 -9 l-43 -6 28 -30 c35 -37 98 -68 139
-68 40 0 104 31 135 64 31 34 17 45 -55 47 -27 0 -63 2 -80 3 -16 1 -41 0 -55
-1z"/>
<path d="M4133 6376 c-35 -16 -47 -43 -38 -85 10 -48 65 -87 205 -144 169 -70
334 -98 530 -92 151 6 177 9 305 42 158 41 318 118 344 166 17 33 17 85 -1
104 -29 29 -88 20 -202 -31 -168 -75 -256 -96 -426 -103 -219 -8 -388 26 -558
111 -85 42 -119 49 -159 32z"/>
<path d="M7253 6779 c-217 -35 -449 -273 -548 -564 -26 -79 -138 -642 -279
-1410 -91 -493 -111 -585 -131 -625 -23 -44 -72 -96 -145 -155 -163 -130 -252
-242 -314 -397 -41 -104 -54 -190 -81 -558 -2 -30 -7 -203 -11 -385 -8 -376
-5 -396 67 -543 45 -91 77 -128 333 -367 146 -138 229 -196 311 -221 60 -18
226 -41 350 -49 50 -3 113 -8 141 -11 96 -10 589 -6 678 6 307 39 472 194 624
585 167 430 349 1050 353 1200 0 26 2 27 9 10 5 -12 8 60 8 180 -1 110 -3 184
-6 165 -4 -33 -6 -30 -33 48 -33 91 -63 141 -166 277 -96 127 -139 147 -498
228 -314 71 -355 82 -355 94 0 14 57 222 120 438 90 311 261 909 301 1055 40
146 42 163 42 285 0 148 -13 232 -50 325 -79 198 -235 333 -441 381 -60 14
-211 18 -279 8z m282 -328 c77 -38 125 -90 156 -167 20 -52 22 -77 23 -214 0
-175 3 -163 -114 -555 -37 -126 -120 -408 -184 -625 -215 -739 -219 -756 -181
-814 23 -35 109 -75 218 -101 42 -11 77 -23 77 -27 0 -4 -107 -8 -237 -9 -473
-1 -606 -9 -670 -40 -90 -44 -201 -203 -257 -369 -29 -88 -66 -265 -95 -465
-12 -77 -24 -156 -27 -175 -3 -19 -11 -84 -19 -143 -8 -60 -22 -152 -30 -205
-9 -53 -19 -115 -22 -137 -12 -88 -38 -170 -53 -170 -8 0 -30 30 -50 69 l-35
69 0 161 c0 144 8 287 20 371 2 17 7 71 10 120 3 50 8 108 10 130 2 22 7 76
10 120 11 127 31 230 58 287 33 73 122 167 236 248 117 83 168 132 192 186 15
32 108 506 154 784 60 361 232 1221 262 1313 28 86 106 228 160 295 85 104
250 131 388 63z m210 -2541 c270 -49 431 -102 508 -169 50 -44 95 -141 101
-214 9 -118 -39 -258 -97 -282 -37 -15 -178 -12 -417 10 -25 2 -90 7 -145 10
-55 3 -116 8 -135 10 -19 2 -80 7 -135 10 -55 3 -120 8 -145 10 -25 2 -88 7
-140 10 -95 6 -182 12 -295 20 -33 2 -96 7 -140 10 -138 10 -135 8 -135 70 0
112 76 239 157 263 52 15 160 21 556 27 201 3 346 10 360 16 47 22 58 120 18
163 -13 14 -36 30 -52 36 -34 15 -39 35 -6 27 12 -4 76 -16 142 -27z m-837
-815 c20 -2 80 -6 132 -10 99 -6 167 -11 285 -20 39 -3 106 -8 150 -10 44 -3
112 -7 150 -10 39 -2 115 -7 170 -10 150 -9 364 -34 384 -44 15 -9 17 -20 13
-83 -4 -77 -24 -129 -62 -163 -20 -18 -36 -20 -164 -20 -124 0 -316 8 -486 20
-30 2 -120 7 -200 10 -80 3 -172 8 -205 10 -33 2 -109 7 -170 10 -60 4 -132 8
-160 10 -27 2 -95 7 -150 10 -57 4 -103 12 -108 18 -11 16 -1 195 13 232 23
63 37 67 213 60 87 -4 175 -8 195 -10z m-90 -530 c9 -1 91 -6 182 -9 91 -4
192 -9 225 -11 33 -3 123 -7 200 -10 77 -3 169 -8 205 -10 36 -2 112 -7 170
-10 117 -7 261 -22 268 -30 5 -4 -36 -145 -65 -222 -27 -74 -37 -77 -267 -69
-111 4 -235 9 -276 11 -41 2 -149 7 -240 10 -413 15 -671 28 -788 41 l-53 6 6
56 c19 161 34 216 62 241 27 24 28 24 191 17 89 -4 171 -9 180 -11z m-198
-540 c80 -3 201 -7 270 -10 69 -3 181 -7 250 -10 69 -3 163 -7 210 -10 47 -2
146 -7 220 -11 74 -4 144 -8 155 -9 11 -1 41 -3 68 -4 35 -1 47 -5 47 -16 0
-23 -78 -103 -129 -133 l-46 -27 -305 0 c-273 1 -604 10 -685 20 -151 18 -179
30 -242 98 -92 100 -95 131 -11 123 29 -3 118 -8 198 -11z"/>
<path d="M4040 5179 c-141 -10 -276 -43 -415 -102 -287 -122 -458 -251 -780
-588 -310 -325 -715 -856 -924 -1213 -118 -200 -230 -448 -262 -576 l-14 -55
-6 50 c-3 28 -6 -44 -7 -160 -1 -117 2 -204 7 -197 5 9 10 0 15 -29 12 -77
107 -352 166 -484 10 -22 32 -74 50 -115 68 -158 236 -478 415 -790 103 -179
197 -343 209 -365 49 -84 226 -386 252 -427 37 -60 63 -87 106 -109 36 -18 83
-19 1620 -18 871 0 1574 4 1564 8 -17 6 -15 9 13 21 43 18 58 51 62 145 7 154
4 1420 -4 1456 -9 44 -34 72 -160 179 -71 60 -101 80 -107 70 -4 -7 -8 -339
-9 -739 -1 -418 -6 -730 -11 -735 -11 -11 -2086 -14 -2151 -3 -35 6 -49 14
-57 32 -8 17 -12 212 -12 651 0 926 -9 2317 -15 2408 -4 47 -12 91 -22 107
-29 50 -106 73 -165 50 -29 -11 -134 -134 -483 -566 -142 -176 -262 -322 -265
-325 -3 -3 -42 -51 -87 -107 -141 -177 -161 -225 -138 -333 14 -67 29 -104
287 -730 199 -481 270 -665 275 -715 4 -33 0 -47 -21 -72 -25 -29 -170 -113
-196 -113 -24 0 -80 91 -285 466 -269 491 -425 826 -532 1144 -34 102 -40 245
-13 348 65 247 406 799 783 1267 158 196 436 489 610 643 151 135 302 224 475
282 178 59 194 60 897 56 352 -2 654 -6 670 -9 17 -3 59 -8 95 -12 146 -16
384 -71 649 -150 91 -27 158 -42 163 -37 13 13 36 104 43 175 6 53 4 65 -12
79 -84 76 -625 216 -918 237 -145 10 -1207 10 -1355 0z m-750 -3150 c0 -749
-3 -1018 -11 -1013 -15 9 -55 99 -183 409 -59 143 -114 274 -121 290 -22 51
-211 527 -230 581 -10 30 -15 62 -12 76 14 53 521 678 550 678 4 0 7 -459 7
-1021z m-82 -1513 c22 -24 45 -53 51 -65 18 -32 23 -94 11 -125 -9 -26 -10
-26 -124 -26 l-114 0 -31 35 c-39 45 -39 73 2 118 28 32 139 107 158 107 3 0
25 -20 47 -44z"/>
<path d="M4715 4718 c-16 -18 -53 -60 -83 -93 -98 -107 -132 -155 -132 -187 0
-17 19 -67 44 -112 62 -116 79 -174 79 -281 1 -92 -12 -390 -18 -435 -2 -14
-6 -81 -10 -150 -3 -69 -8 -141 -10 -160 -2 -19 -7 -89 -10 -155 -4 -66 -8
-136 -10 -155 -2 -19 -6 -89 -10 -155 -4 -66 -8 -136 -10 -155 -2 -19 -6 -84
-9 -145 -4 -60 -9 -130 -11 -155 -2 -25 -7 -88 -10 -140 -3 -52 -8 -115 -10
-140 -2 -25 -7 -99 -11 -165 -3 -66 -8 -127 -9 -135 -2 -8 -6 -82 -10 -165 -4
-82 -9 -153 -11 -156 -7 -13 -16 -418 -10 -452 8 -43 81 -137 215 -277 l91
-95 21 25 c11 14 42 48 68 75 91 97 180 204 197 236 15 30 16 57 10 259 -4
124 -9 241 -11 260 -2 19 -6 96 -10 170 -3 74 -8 146 -10 160 -2 14 -6 75 -10
135 -3 61 -8 133 -10 160 -3 28 -12 149 -20 270 -8 121 -17 247 -20 280 -2 33
-7 101 -10 150 -3 50 -8 119 -10 155 -13 190 -16 243 -20 330 -9 216 -18 366
-20 381 -2 9 -6 97 -10 195 -9 233 0 288 66 421 61 121 60 142 -2 218 -72 88
-193 215 -205 215 -6 0 -23 -15 -39 -32z"/>
</g>
</svg>
